<svg xmlns="http://www.w3.org/2000/svg" viewBox="0 0 1600 400" width="100%" role="img" aria-label="SAGE AI">
  <title>SAGE AI logo</title>
  <desc>Logo pixelado SAGE AI con contornos desplazados</desc>
  <defs>
    <style>
      .sage-fill-c { fill: #0891B2; }
      .sage-fill-p { fill: #A21CAF; }
      .sage-out-c  { fill: none; stroke: #0891B2; stroke-width: 3; }
      .sage-out-p  { fill: none; stroke: #A21CAF; stroke-width: 3; }
    </style>
  </defs>

  <!-- ============ SAGE (cyan) ============ -->
  <g>
    <g class="sage-out-c">
      <g transform="translate(15,15)">
        <path d="M40,40 L240,40 L240,100 L100,100 L100,160 L240,160 L240,340 L40,340 L40,280 L180,280 L180,220 L40,220 Z"/>
        <path d="M280,340 L280,40 L480,40 L480,340 L420,340 L420,240 L340,240 L340,340 Z M340,180 L420,180 L420,100 L340,100 Z"/>
        <path d="M520,40 L720,40 L720,100 L580,100 L580,280 L660,280 L660,220 L600,220 L600,160 L720,160 L720,340 L520,340 Z"/>
        <path d="M760,40 L960,40 L960,100 L820,100 L820,160 L920,160 L920,220 L820,220 L820,280 L960,280 L960,340 L760,340 Z"/>
      </g>
      <g transform="translate(30,30)">
        <path d="M40,40 L240,40 L240,100 L100,100 L100,160 L240,160 L240,340 L40,340 L40,280 L180,280 L180,220 L40,220 Z"/>
        <path d="M280,340 L280,40 L480,40 L480,340 L420,340 L420,240 L340,240 L340,340 Z M340,180 L420,180 L420,100 L340,100 Z"/>
        <path d="M520,40 L720,40 L720,100 L580,100 L580,280 L660,280 L660,220 L600,220 L600,160 L720,160 L720,340 L520,340 Z"/>
        <path d="M760,40 L960,40 L960,100 L820,100 L820,160 L920,160 L920,220 L820,220 L820,280 L960,280 L960,340 L760,340 Z"/>
      </g>
    </g>
    <g class="sage-fill-c">
      <path d="M40,40 L240,40 L240,100 L100,100 L100,160 L240,160 L240,340 L40,340 L40,280 L180,280 L180,220 L40,220 Z"/>
      <path d="M280,340 L280,40 L480,40 L480,340 L420,340 L420,240 L340,240 L340,340 Z M340,180 L420,180 L420,100 L340,100 Z"/>
      <path d="M520,40 L720,40 L720,100 L580,100 L580,280 L660,280 L660,220 L600,220 L600,160 L720,160 L720,340 L520,340 Z"/>
      <path d="M760,40 L960,40 L960,100 L820,100 L820,160 L920,160 L920,220 L820,220 L820,280 L960,280 L960,340 L760,340 Z"/>
    </g>
  </g>

  <!-- ============ AI (magenta) ============ -->
  <g>
    <g class="sage-out-p">
      <g transform="translate(15,15)">
        <path d="M1080,340 L1080,40 L1280,40 L1280,340 L1220,340 L1220,240 L1140,240 L1140,340 Z M1140,180 L1220,180 L1220,100 L1140,100 Z"/>
        <path d="M1320,40 L1520,40 L1520,100 L1450,100 L1450,280 L1520,280 L1520,340 L1320,340 L1320,280 L1390,280 L1390,100 L1320,100 Z"/>
      </g>
      <g transform="translate(30,30)">
        <path d="M1080,340 L1080,40 L1280,40 L1280,340 L1220,340 L1220,240 L1140,240 L1140,340 Z M1140,180 L1220,180 L1220,100 L1140,100 Z"/>
        <path d="M1320,40 L1520,40 L1520,100 L1450,100 L1450,280 L1520,280 L1520,340 L1320,340 L1320,280 L1390,280 L1390,100 L1320,100 Z"/>
      </g>
    </g>
    <g class="sage-fill-p">
      <path d="M1080,340 L1080,40 L1280,40 L1280,340 L1220,340 L1220,240 L1140,240 L1140,340 Z M1140,180 L1220,180 L1220,100 L1140,100 Z"/>
      <path d="M1320,40 L1520,40 L1520,100 L1450,100 L1450,280 L1520,280 L1520,340 L1320,340 L1320,280 L1390,280 L1390,100 L1320,100 Z"/>
    </g>
  </g>
</svg>
